<svg width="24" height="24" viewBox="0 0 24 24" fill="none" xmlns="http://www.w3.org/2000/svg">
  <path d="M18 8.8C18 7.21 17.368 5.685 16.243 4.561C15.117 3.436 13.591 2.804 12 2.804C10.409 2.804 8.883 3.436 7.757 4.561C6.632 5.685 6 7.21 6 8.8C6 15.8 3 17.8 3 17.8H21C21 17.8 18 15.8 18 8.8Z" stroke="currentColor" stroke-width="1.8" stroke-linecap="round" stroke-linejoin="round"/>
  <path d="M13.73 21C13.554 21.303 13.302 21.555 12.999 21.73C12.696 21.904 12.352 21.996 12.002 21.996C11.652 21.996 11.308 21.904 11.005 21.73C10.702 21.555 10.45 21.303 10.274 21" stroke="currentColor" stroke-width="1.8" stroke-linecap="round" stroke-linejoin="round"/>
</svg>
